<svg width="99" height="117" fill="none" xmlns="http://www.w3.org/2000/svg"><path fill-rule="evenodd" clip-rule="evenodd" d="M95.8 66.1l-4.2.5C85.1 67 78.5 68 72 68.7a.5.5 0 00-.7 0c-.7 0-1.4-.6-2 0-1-2-1.8-4.2-2.5-6.4-.5-1.3-1-2.6-2.2-3.5-1.9-1.3-6.3-4-8.5-3.8 0-.4-.2-.9-.5-1.1.6-1.2-2-2-2.3-1.8.2-3.8-1.6-7.2-5.6-8-3.6-.7-8.7-.8-10.6 3l-2.6-.1c-.4-.4-4 3.5-2.5 4.9-13 5.7-20.5 5-24.1 21.3-.5 1.6-.6 3.2-1 4.7A43.6 43.6 0 003 91.5c-.9.2-1 1.8 0 2 .4 0 .8.2 1 .4-.2 3.9.8 12.6 1.4 12.6 1.1 3.8 6.5 4.8 10.2 3.5-.6 1.2 0 2 0 2.7 13.6.5 28.4.2 41.9.9 1.7 0 3.6.4 5.3.1 1-.2 1-1.8 0-2l4.6-1c-.1 0 1.9-1.4 3.4-4 1.4-2.7.4-6 1-9 5-.5 10.1-.7 15-1.5.8 2 3.7-.4 4.6-1.4.4-.1.8-.5.8-1 .3-.5.4-1.1 0-1.5 1.5-8 3.6-16.1 4.3-24.2.3 0 .6-.2.8-.3.3-.5.4-1.2-.2-1.5-.5-.3-1-.2-1.4-.2z" fill="#fff"/><path fill-rule="evenodd" clip-rule="evenodd" d="M37.3 46.1c.4-1 1.8-.6 1.6.5 0 .6-.4 1.3-.7 1.9-.3.4-.6.9-1 1.2a39 39 0 002.2 2l2.6 1.8 2.4 1.5a4 4 0 011.6 2 4 4 0 010 2.6c-.3 1-.8 2-.2 2.8l1.2 1a9 9 0 012.5 3.5v.1c.3.8.5 1.9.2 2.7-.2.2-.5.1-.6 0L49 68a6 6 0 00-.6-1.5c-.6-1-1.3-1.8-2-2.5l-.3-.2c-.7-.5-1.3-1-1.4-2-.2-.9.2-1.8.5-2.7a3 3 0 000-1.8c-.2.4-.5.8-.8 1l-1.4 2a43.5 43.5 0 00-2 2.7l-.6.7v.3c-1 1.2-2.2-1.3-2.5-1.9-.7-1.3-1.2-2.6-1.8-4-.7-1.2-1.5-2.5-2.4-3.7L32 52.2c-1.2 1-2.7 1.7-4 2.4l-4.7 1.8-.5.2c-2.7 1-5.4 2.2-7.7 4a19 19 0 00-5.3 8.5c-1.4 3.6-2.5 7.4-3.5 11A201 201 0 004.8 86c-.4 1.7-.7 3.5-1.2 5.1 1 0 2 .4 2.9.5 3.8.5 7.5 1.3 11 2.6.5.2.6.6.5 1l.8-.2c-.3-.4-.1-1.2-.1-1.7l.1-1.9.3-3.6v-.3l.6-3.9v-.1l-.3-1-1-2.5c0-.1 0-.2.1-.1a7 7 0 011.5 1.9v-.4l.6-1.5h.1c.3.5.3 1.2.4 1.8v2l-.1 3.8-.4 3.8v.2l-.3 1.8v.2l-.3 1a884 884 0 019.6-2.6l6.9-1.8.5-.6c.6-.6 1.4-.9 2.2-.4v.2a14 14 0 00-.5.2l1.4-.4 3.2-.8c2-1 4-1.7 6.1-2.4h.2c1.1-.4 2.2-.8 3.3-1 .8-.1 1.7 0 2 .9l1.2.8.8.7.5.7c0 .1-.1.3-.3.3-.6 0-1-.7-1.4-1.1l-.9-1h-.5c-.5-1-2-.4-2.7-.2l-1.2.4-1.7.5-4.7 1.4c.1.2.1.5-.2.6-1.2.5-2.6.7-3.8 1a797.6 797.6 0 00-2.5.7 2 2 0 00-.3.8c-.1 1 .2 2.3.5 3.4v.1c.3.9.6 2 1.3 2.4.2.2.5.3.7.3l4.3-2.2c.2-.2.5 0 .6.2.5 0 1-.2 1.4-.3.8-.3 1.4-.8 2.1-1.1 1.4-.7 2.9.1 4.1.7l.3.2c.6.3 1.7.8 2 0 .3-.7-.6-1.5-1.1-1.8-.6-.4-1.4-.6-2-.7a13.1 13.1 0 00-1.3-.3c-.5 0-1 0-1.5-.2-.2 0-.2-.4 0-.5a6 6 0 012.3.2l.4.1c.7.2 1.5.4 2.2.8.4.2 1 .6 1.3 1.1.3-.3.7-.2 1-.1h.2c.4.1.7.2 1 .1l.1-.7a172 172 0 015-19l.1-.5c.3-.9.5-1.9 1-2.7.5-.8 1.2-1.2 2-1.5l3-.6h.7l-.4-1.1-.8-2-.2-.4c-.4-1.1-.8-2.3-1.4-3.3-.7-1.2-1.5-2-2.5-2.8-2.2-1.6-4.7-2.4-6.8-4l.1-.2c1.4.7 3 1.2 4.4 1.7l.3.2c1 .4 2.3.9 3.2 1.6 1.1.8 2 1.9 2.7 3 .6 1.2 1 2.6 1.5 3.8v.4l.7 1.5c.1.4.5.8.6 1.3l1.2-.2a191.9 191.9 0 0126.1-2.6c.4 0 .6.3.5.6l-2.4 15a908.9 908.9 0 01-1.1 6.5L94 91c-.1 1-.2 1.8-.5 2.7a5 5 0 01-1.1 2.1A4 4 0 0190 97c-2.2.4-4.4.5-6.6.8L72 99c.1 1.5.2 3 0 4.6v.8l-.1 2c-.2 1-.6 1.6-1.1 2.3a13 13 0 01-3.9 2.8c-.7.3-2 .7-2.9.6.1.6.4 1.2.2 1.8-.1.3-.5.4-.7.2-.5-.5-.5-1.1-.6-1.7a47.5 47.5 0 01-.3-1.9c-.1-1.2-.3-2.4-.3-3.7a44.7 44.7 0 010-3.7 26.5 26.5 0 01.4-3h-1a50.6 50.6 0 01-5.8.5c-2.3 0-4.3-.8-6.4-1.6l-3-1.4-3-1.1-2.4 1.3a1 1 0 01-.1.2c-.2.3-.5.5-.8.6a2 2 0 01-1 .1 3279.1 3279.1 0 01-5.6 3l-1.8 1-11.2 5.7-.3.2c-1.3.6-2.7 1.3-4.1 1.8v1.2c0 .4.2 1-.2 1.3-.2.2-.5.2-.7 0-.2-.5 0-1.3 0-1.8l.2-.5c-1.7.5-3.4.7-5 .4a6.5 6.5 0 01-4-2.5c-1-1.3-1.8-2.9-2.2-4.5-.5-2-.5-3.9-.5-5.8l.3-6.2a3 3 0 00-.8 0c-.1.2-.4.2-.7.2-.5.6.9 1.2 1.3 1.3v.3h-.2c-.6 0-1.3-.1-1.7-.7-.3-.5-.2-1.1.2-1.5.2-2.3.8-4.5 1.3-6.8l1.8-6.5.3-1c1-3.4 2-6.9 3.3-10.1.7-1.7 1.5-3.3 2.6-4.7a16 16 0 013.4-3.4 33 33 0 018.4-4l4.5-1.7c1.4-.5 2.6-1.2 3.9-1.7a7 7 0 01-.1-.2H31c-.3-.3-.2-.6 0-1l.7-1 .2-.3 1.3-1.7a2.8 2.8 0 01.8-.5s.1-.2.2-.1c.9-.3 1.9-.3 2.8-.2m34.3 52.4h-1.2l-4 .5-3 .4v.4a227 227 0 00.1 5.8c0 1.2.2 2.5.4 3.7v.4c.2 0 .3 0 .4.2.2.3 1.1 0 1.5 0a10.3 10.3 0 003-2l.3-.5.9-1 .4-2c0-.8.2-1.5.3-2.3M36.2 90.9H36l-13.8 3.7-6.8 1.7h-.3c-1.8.5-3.7 1-5 2.3 0 .1-.1 0-.1 0a11 11 0 015.6-2.8l1.1-.4A66 66 0 008.4 93l-2.2-.4-1.5-.4-.4-.1v6.6l.1.3c.1 2 .3 4 1 5.9.5 1.5 1.5 3 2.7 4 .6.6 1.2 1 2 1.3a7 7 0 002.3.1c3.7-.2 7-2.2 10.1-3.9a8684 8684 0 0115.7-8 2.6 2.6 0 01-.4-.4c-.7-.7-1-1.7-1.3-2.7a14 14 0 01-.4-3.1m6.7 7.2h.1l-.3 1.2-.7 1.3a64.5 64.5 0 01-1.4 2.6c-1 1.7-2 3.3-3.4 4.8-.3.3-.8-.1-.6-.5l3-5 1.7-2.4.7-1 .2-.2m55-33.5c-4.6.2-9.2.5-13.8 1a188.5 188.5 0 00-15.3 2l-.5.1c-.9.2-2 .3-2.7.7-.9.5-1 1.6-1.4 2.4a189.9 189.9 0 00-1 3l-3.2 12-1.4 6.1a156 156 0 01-1.3 5.4.5.5 0 01.2-.1c2.3-.5 4.7-.7 7-1h.3l7.3-.9 16.3-1.8c1-.1 2-.1 2.9-.4 1.5-.4 2-2.2 2.2-3.6l2.2-12.8m-38 15.6c-.7 0-1.5-.6-2-.5.2.4.3.9.2 1.4-.4 1.4-2.2.7-3 .2-.8-.3-1.5-.8-2.3-1-.9-.1-1.5.2-2.3.6-.6.4-1.3.6-2 .7h-1a.4.4 0 01-.1.1l-.2.1a35.9 35.9 0 014.9 1.4l.8.3c1.9.8 3.9 1.5 6 1.5h.3M53.3 90c.7-.1 1.2 0 1.7.4.6.5 1 1.3 1.9 1.3.2 0 .3.4 0 .5-.6.2-1.1-.2-1.5-.6l-.3-.3c-.5-.5-.9-.8-1.6-.8l-2.4.3a85.4 85.4 0 01-2.6.3V91l1-.3m3.2-3.3h.1c1 0 1.8 0 2.6.4l.1.1c.8.4 1.5 1 2 1.7 0 .1 0 .2-.2.2-.8-.2-1.5-.8-2.2-1.3-.8-.6-1.7-.5-2.6-.4-1 0-1.9.2-2.8.4l-2.5.4c-.1 0-.2-.2 0-.2.8-.4 1.8-.6 2.8-.8M21.8 63s.1-.1.1 0a49.4 49.4 0 012.8 14.4c0 .4-.5.5-.6 0L23 70.3l-.7-3.7m5.3-1.7c0-.1.2-.2.2 0a15 15 0 01.9 9.2c-.2.4-.8.2-.7-.2m14.8-11.6s.2-.1.2 0c.6.8.8 1.8 1.8 2.2.5.2 1 .2 1.5.5.3.3.5.6.3 1-.1 0-.3.1-.4 0l-.4-.5c-.3-.2-.6-.2-1-.3-.3-.1-.7-.3-1-.6m8.4-15.4h.1v.2l.2.7.2.8.4 1.6a20.3 20.3 0 00.5 1.7h.1v.3c.1.3.2.7 0 1l-.3.2-.6 1.7-.1.2-1.3 2.4c-.7.7-1.5 1.3-2 2.1l-.7 1.3v.1c-.1.3-.2.6-.5.8h-.3c-.6-.7 0-1.8.3-2.5.6-.8 1.3-1.4 2-2C51 59 51.5 58 52 57l1-1.7c-.4-.3-.5-.8-.6-1.2a13.9 13.9 0 01-.5-3.8v-.2m1.5 1.8c-.1 0 0-.2.1-.1.6 0 1.2.4 1.7.7.5.3.9.6 1.1 1 .2.5.2 1 .2 1.5 0 .7 0 1.4-.2 2 0 .3-.3.4-.6.3-.3.9-1 1.6-1.7 2.3-.7 1-.6 2.1-.5 3.2 0 .5-.5.6-.8.4l-.7-.6a85.5 85.5 0 01-.3-.2 19.9 19.9 0 01-.3-.3l-.1-.1-.4-.4c-.2 0-.7.5-.8.7l-.9.9.7-1.4c.3-.4.6-.8 1-1a29.8 29.8 0 011.7 1c-.1-.8 0-1.6.4-2.3l1.1-1.3 1-1.6.2-.1.2-1.2v-1.5l-1-.9-.3-.2m-19.9-5.3a2.1 2.1 0 00-.5.4l-1.1 1.7-.5 1a22.2 22.2 0 01-.3.4l-.2.3.2.2 2.3 2.6c1 1.1 1.7 2.3 2.4 3.5.7 1.2 1.2 2.5 1.8 3.8l1.1 1.7.1.1.8-1.2 1.6-2a51.4 51.4 0 011.4-1.6l.2-.2c.4-.4.8-1 1.3-1.3a2.5 2.5 0 00-.2-.2c-.4-.7-1.1-1.1-1.8-1.5l-.4-.3a29.9 29.9 0 01-6.8-5.5l-.2-.3m1.5-2c-.8 0-1.6 0-2.3.3l1.8 1.8.3-1.2" fill="#2B283A"/><path d="M82 79.2l-4 .4c-.4 0-.8.5-.8 1v.2c.1.5.5.8 1 .8l4-.4c.5 0 .9-.5.8-1V80c0-.5-.4-.8-1-.8zm-1.9 2.6l-2 .1c-.4 0-.7.4-.7.9v.2c.1.4.5.7.9.7l2-.2c.4 0 .7-.4.6-.9v-.1c0-.5-.4-.8-.8-.7zm0 2l-4 .4c-.4 0-.8.5-.8 1v.2c.1.5.5.8 1 .8l4-.4c.5 0 .9-.4.8-1v-.2c0-.4-.4-.8-1-.8zm-6.3.6h-.3c-.5 0-.8.5-.8 1v.2c0 .5.5.9 1 .8h.2c.5 0 .9-.5.8-1v-.2c0-.5-.4-.8-1-.8z" fill="#2B283A"/><path fill-rule="evenodd" clip-rule="evenodd" d="M63 25c-.4-2.9-1.5-6-2.8-8.8-2.7-5.8-9-6.6-14.6-7.8a39.7 39.7 0 00-16.9.1c-3 .8-4.3 4.4-3.8 7.3.3 1.8 1.1 3.5 1.8 5.2A29 29 0 0129 31.8c-.1 2.4-.4 5.2 2.3 6.2 2.7 1.3 3 5 6.2 7 1.4 2.7 5 3 7.7 3.5a51 51 0 005 .7c4.9.7 8.8-.7 11.3-5.1 1.7-2.6 3-5.7 2.7-9l-1.2-10z" fill="#fff"/><path fill-rule="evenodd" clip-rule="evenodd" d="M45.6 1.4c.3-.3.8-.2 1 0 .2 0 .3.2.5.3h1a1.9 1.9 0 01.3-.2 2 2 0 011.9.2c.2-.2.5-.4.9-.3.4 0 .6.1.8.4.2-.3.6-.6 1-.6.6 0 1.2.2 1.7.6.3-.3.6-.5 1-.5h1l1 .6c.3-.4.9-.7 1.5-.6.8 0 1.4.6 1.7 1.3.5.2 1 .5 1.4 1h.1l.6.4c.6.5.7 1.2.5 1.9l.1.3c.5 0 1 .4 1.3.9.4.7.3 1.6 0 2.3a3 3 0 01-.8.7c.3.7.2 1.5-.3 2 0 .2-.2.3-.4.5.2.7-.1 1.4-.7 1.7v.1a3.4 3.4 0 01-.1.1v.1c0 .2-.1.5-.3.7-.3.4-.7.7-1 1.3 0 .3-.3.5-.6.4 1.4 2.8 2.2 6 2.7 9.1l.5 4.7.2 1.5.3 4.2a14 14 0 01-2.9 8.6 13 13 0 01-7.3 4.8c-3 .7-6.5.4-9.2-1.2-.8-.5 0-1.6.7-1.2a12.3 12.3 0 009.7.7 12 12 0 007.7-8.8c.3-1.7.3-3.4.1-5v-.1a113 113 0 00-1-9.7 58 58 0 00-2.1-8.2 5 5 0 00-1.2-.8 85.1 85.1 0 00-17.4 1l-.3.1-1.8.4c-.5.2-.7.6-.8 1.1-.3 1.2-.3 2.5-.4 3.8v3.6c-.1 1-.4 2-1.1 2.8-.4.4-.9.6-1.3.9-.3.2-.5.4-.4.7 0 .8.7 1.8 0 2.4h-.5c-.2-.3-.6-.5-1-.8-.1 0 0-.3.2-.2l.6.3A4 4 0 0033 31a3.2 3.2 0 00-1 0l-.6.2a16.7 16.7 0 01-.9.4c-1 .8-1.5 2.1-1.3 3.5.1.7.5 1.5 1.1 2 .8.4 1.8.2 2.6.6.7.3 1.2 1 1.5 1.8l.2.3 1 2a9.8 9.8 0 003 2.6c.4.2.7.4.7.9l-.2.4c-.6.3-1.1-.1-1.6-.4a11.4 11.4 0 01-1.4-1.1 11 11 0 01-2.2-2.7c-.4-.8-.6-1.8-1.3-2.4-.4-.4-1-.4-1.5-.5-.5 0-1-.1-1.4-.4-1.7-1-2.2-3.2-1.8-5a5.3 5.3 0 01.3-1c-.6.2-1.3-.5-1-1.2-.4-.3-.8-.7-1-1.3v-.8c-.2-.2-.4-.3-.5-.6-.3-.1-.6-.4-.8-.7-.2-.5-.2-1 0-1.3a3.4 3.4 0 01-.1-.1 2.3 2.3 0 01-1.1-2.1 2 2 0 01.2-.8c-.7-.4-1.1-.8-1.3-1.5A2 2 0 0123 20c-.6-.5-1-1-.7-2 0-.4.3-.7.5-1-.8-.6-1.2-1.4-.8-2.3.2-.4.5-.7.9-.9-.3-.6-.3-1.1-.2-1.7.2-.5.5-1 .9-1.2V10c0-.5.3-.9.6-1.1a2 2 0 010-.2l.6-1c.2-.2.4-.3.7-.3a2.4 2.4 0 010-.7c.2-.7.6-1.3 1.2-1.6l.8-.1c.3-.5.7-.8 1.2-1h.6a3.4 3.4 0 01.4 0 8 8 0 01.2-.1c.2-.3.6-.6 1-.7.4-.2.8-.2 1.2 0h.2c.2-.4.5-.7 1-.8a2 2 0 011.6.4c.2-.5.6-.9 1.2-.8.5 0 .8.2 1.1.5h.5a4.1 4.1 0 01.6-.6c.3-.3.7-.3 1 .1l.1.2h.3c.2-.3.6-.6 1.1-.6.5 0 .8.2 1 .5h.7a3.8 3.8 0 01.8-.7c.3-.2.6-.1.8 0l.4.5a2 2 0 011.1-.6zM31 33c.5-.3 1.1 0 1.6.2.5.3 1 .7 1.4 1.2.4.7-.6 1.3-1.1.7l-.9-1.2c-.3-.3-.8-.5-1-.9zm.3-17.1c.2-.4-.4-.6-.5-.2a1 1 0 00.5 1.4l.5-.1-.1-.5c-.4 0-.5-.3-.4-.6zm-5-1c.4-.3 0-.7-.3-.5-.3.3-.5.6-.4 1 0 .3.3.6.6.8.3.2.6-.3.3-.5l-.4-.4c0-.2.2-.3.3-.4zm1.7-4.5c.4-.3 0-.8-.3-.6-.2.3-.5.5-.5.9 0 .3.2.7.4.9.3.3.7-.1.4-.4-.2-.3-.3-.6 0-.8z" fill="#2B283A"/><path fill-rule="evenodd" clip-rule="evenodd" d="M63.7 38.9c-.2-.4-.8-.3-.8 0 0 .6 0 1.1-.6 1.4-.4.2-1 0-1.3-.4l-.8-1.1-1-.7c-.4-.1-.7-.2-1-.1-.9-.2-1.8.2-2.3.8a2.1 2.1 0 000 .2 4.2 4.2 0 00-.2-.2c-.2-.2-.3-.2-.5-.2-1-.7-2.2-.8-3.2-.2-.8.5-1.5 1.2-2.5 1.3-.8 0-1.7-.4-1.7-1.3 0-.4-.7-.8-1-.4-.8.9-1 2-.5 3.2a4.3 4.3 0 002.4 2.4c1.2.5 2.6.7 4 .6a4 4 0 003.2-1.6 3.5 3.5 0 00.2-.4 4 4 0 003.2 1.4c1.2 0 2.7-.1 3.6-1.1.9-1 1.2-2.4.8-3.6z" fill="#2B283A"/><path fill-rule="evenodd" clip-rule="evenodd" d="M52.8 43.6c-.7-.3-1.4-.8-1.8-1.4a.8.8 0 01-.2-.7 1 1 0 011-.7l.6.3c.3.5.6.8 1 1l1.3.2c1-.1 1.5-.6 2.2-1.2l.2-.3a.4.4 0 01.2-.1.4.4 0 01.3 0 .4.4 0 01.2.1.4.4 0 010 .3c0 .7-.4 1.3-.8 1.7a4 4 0 01-2 1 4 4 0 01-2.2-.2zm2.5-10.3c.8.5 2 1.7 1.2 2.9-1 1-2.5-.2-3.2-.7-.7-.5-1.4.6-.8 1.1 5.2 3.9 7.3-3.1 3.3-3.8-.5-.1-.7.4-.5.5zM46 29c.1-1.1 1.8-1.4 2-.3.1 1 0 1.9-.5 2.7-.4.9-1.5.5-1.6-.3L46 29zm12.8-.5c.2-.3.5-.5 1-.4 1.2.3.8 2.1.4 3-.3.5-1 .6-1.4.2-.6-.7-.8-2-.1-2.7a1 1 0 010-.1zM47.5 24h.2c.6-.2 1.3-.3 1.8.2.2.3.3.8 0 1-.6.5-1.2.3-1.8.3a7.2 7.2 0 00-1.6.3c-1.1.3-2 1-3 1.6-.2 0-.3-.1-.2-.2a6.8 6.8 0 014.6-3.2zm10.1-.5h.2c1.6.3 3.8 1 4.6 2.7v.3h-.2c-.4 0-.7-.2-1-.3l-.3-.1-1-.5c-.9-.3-1.7-.4-2.5-.5a1 1 0 01-.5-.2.7.7 0 01-.3-.4l.1-.7a.8.8 0 01.4-.3h.5z" fill="#2B283A"/></svg>