<svg width="174" height="125" fill="none" xmlns="http://www.w3.org/2000/svg"><path fill-rule="evenodd" clip-rule="evenodd" d="M148.3 55.5c-5-1.1-7.8-1.1-9.5-2.8-1.6-1.6-1.9-4.5-2.6-6.7-.3-1.2-4-2.3-7.6-2.1-2.9 0-5.8 1.3-6 2.1-.5 1.7-1.3 9.2-4 10.3-2.7 1.2-8.3.1-10 2.9-1.6 2.7-7 13.9-7 16.5 0 2.6 52.2 1.8 52.2 1.8s-.7-21-5.5-22z" fill="#fff"/><path fill-rule="evenodd" clip-rule="evenodd" d="M169.6 116c-.1 0 0 0 0 0zm.2-.2s.1 0 0 0zm-77.1-7l1-4.1 2-8.8 4-17.1L102 70c.6-2.6 1.1-5.2 2.2-7.6 1-2.4 3-4.5 5.4-5.5 2.2-1 4.5-1.4 6.8-1.5a1 1 0 010-1.3c.6-.5.7-1.3.9-2 .1-.9.4-1.8 1-2.6.1-.3.5-.4.8-.3l.7.1.2-.2.5-.7c.1-.1.3-.2.4 0 .5.2.5.8.4 1.2a2.2 2.2 0 010 .3c.6-.1 1.3.1 1.9.2a29 29 0 009.7-.6c.8-.1 1.7-.3 2.4-.7v-.7c0-.4 0-.8.2-1.1.3.1.5.4.7.6h.7l1 .6c.3.4.4.9.5 1.4l.3 1h.1a4 4 0 01.2.3l.2.1c.5.4 1 .6 1.7.7 1.4.5 2.9.7 4.3 1.2a34.2 34.2 0 0119.3 13.8 46 46 0 016.5 21c.8 8 .7 16.1 1 24.2v3c0 1 0 2-.8 2.7-.8.6-1.7.4-2.6.2a22.5 22.5 0 00-8.3-.9c-1 .1-2.2.5-3-.3l-.5-1-.6-1.3-.5-1.1-.8 3.4c0 .5-.5.5-.8.3-.5.2-1.1.2-1.6.3l-2.6.2a231.2 231.2 0 01-15.2 0c-6.7 0-13.4 0-20.1-.3l-5.7-.1H106l-.9-.2-.4.3c-.7.1-1.3-.2-1.5-.9a2 2 0 01-.1-.8l-.1-.6c-1 .7-2.3.9-3.5.8l-4.3-.5c-1.3-.2-3.4-.2-3.5-2 0-.6.3-1.4.5-2l.5-2.3z" fill="#2B283A"/><path fill-rule="evenodd" clip-rule="evenodd" d="M125.5 6c-4.5 0-10 2.2-10.4 2.2-.3 0-1.2.7-2.9 2.2l1.8 3.5-.1.1a75 75 0 00-1.8 1.8c-3.8 4-4.5 19.3-3.6 24.7 1 5.3 2.6 10.6 10.4 10.6s16.4-4.7 17.7-6.2c1-1 2-1.4 3-1.4l.2-.1h.1a10 10 0 003.3-1c1.3-.7 2.8-4.5 2.8-5.4 0-.8 2.1-7 2.1-7.6 0-.6 2.8-3 2.8-3.9 0-.8.6-.7 0-3.5l-.1-.8c-.6-3-1.8-7.9-6.3-10a59.5 59.5 0 00-19-5.2z" fill="#fff"/><path fill-rule="evenodd" clip-rule="evenodd" d="M145.3 11A43.6 43.6 0 00122 5.3h-.2c-.6 0-1.1.2-1.7.3-1.7.5-3.6 1-5 2.1-1.2.9-5 2.3-4 4.5-.3.8-.5 1.8-.2 2.5l.2.8c-.9 1.3-1.6 2.8-2.2 4.3a45 45 0 00-1.7 10.9c-.3 7 .5 15.2 6.5 19.7 3.6 2.8 9.3 3 13.4-.6.3-.3 1.4-1 1-1.2l-.3.4v-.2c.3-.1.5-.4.2-.4a1.5 1.5 0 00-.1.2c.1-.2.2-.4 0-.3a8.6 8.6 0 01-.4.4v-.1c.2-.1.2-.1.1-.2.2-.4-.2-.2-.2 0-.3-.1-.5.4-.7.5-7.5 5.7-18.4.6-18.2-15.5v-.3a37.1 37.1 0 013.3-16.4l.6-1a8.3 8.3 0 001.6-.2l.6-.2 8.1.5h.9c2.3.2 4.7.4 6.6 1.9 1.8 1.3 1.8 3.8 3.4 5.3 2.2 1.5 2.2 2.9 2.7 5.1 0 1.7-1.2 4.1.9 4.8-.4.6.1.3.2.1-.3.6.1.3.2 0-.3.5.3.2.2 0 .7-.9 2-1 2.9-.8 4 .9 3 9-1 8.1h-.3c.1-.2-.1 0-.1 0 0-.5-.5.2-.4.2V40c-.1-.1-.2.4-.3.4.1-.2 0-.3 0-.2a16.6 16.6 0 01-4.1 5.4c-.7.6-1.6 1-2.2 1.4l-.2.2-.2.1a1.2 1.2 0 00-.1.2v.1h.2s-.1.2 0 .2l.1-.1-.1.2a.3.3 0 00-.1.2h.2c0 .1-.1.2 0 .2l.3-.1c.3 0 .5-.2.8-.3l.7-.5.6-.4a13 13 0 003.2-3.1c1.5 1.3 4.5 0 6.4-1 1.6-.9 2.2-2.5 2.4-4.3.3-2.5 2.3-3.3 2.2-8.6h.2a1 1 0 00.2-.2v-.1a.6.6 0 00.2 0l.1-.3c.3-.4.6-.9 1-1.2a8 8 0 001.4-3.1c.2-.9 0-1.7 0-2.5-.8-2.7-3.3-9-6.5-11.6zm-17.6 37.7a.3.3 0 010 .1zm-5.7-42c4.8-.4 9.4.6 14 1.9h.3c2.6.8 5.3 1.5 7.5 3 3 2.4 4.6 6 6 9.5 1.2 2.6.6 5.4-1.2 7.2-.2-1.7-.6-3.5-1-5.2-.2-.2 0-.3-.3-.4-.3 4.6 1.3 8-2 13.5-1.4 2.5.2 4.4-3.8 5.8h-.1c-.9.3-1.8.6-2.6.4V42l.3-.5h.1v.1l.7.1h.7l.1-.1c.5-.1 1-.4 1.3-.7 3.8-2.1 3.4-9.4-1.2-10a31.3 31.3 0 00-6-16.7c-3.2-4-12-5.8-18.3-5.2l-.3.1c-1 .1-1.8.5-2.8.7.7-.5 1.5-.8 2.3-1.1 1.6-1 3.4-1.5 5.2-1.9a5.1 5.1 0 011.1-.1zm19 27.8h-.3c-1.8-.2-3.7 1.4-4.7 2.7l.3-.2c-.4.6.4 0 .5-.2l-.3.4c-.5.4-.5.7 0 .1v.1c-.2.2-.4.8.1.2 0 .4.6-.4.6-.4 1-.8 2.7-1.6 4-1.7.3 0 .4-.1.3-.3.3 0 .3-.2.1-.2.2-.2 0-.3 0-.2 0-.3-.3-.1-.4-.2-.1-.2-.2 0-.2 0zm3.7-14.7c-.8-.3-3.4.6-3.2 1.9.2.2.6.4.8.2l.4-.2a23 23 0 011.9-1.2c.4-.2.5-.6.1-.7zm-4.9-1.9l.4-.2c1.8-1.2 4.3-3-.2-1.1-.5.2-1.2.3-1.5.8-.4 1 .7 1 1.3.5zm-.2-5.3c.2-.5-1.6.1-2.1.3h-.1c-.5.2-1.1.4-1.4.8-.4.6.4.8.8.5 1-.6 2-1 2.8-1.6zm-4.5-2.5c1-1.1-1.7 0-2.1.2-.3.3-.3.7 0 .9.8 0 1.4-.7 2-1.1zm-4.6-1.2c1.6-1.2-.5-.6-1.2-.2-.5.5 0 1.2 1.2.2z" fill="#2B283A"/><path fill-rule="evenodd" clip-rule="evenodd" d="M125.2 38.6c-1.9-.2-3.7.3-5.5.6a25.6 25.6 0 01-3.5.3c0-.1 0-.3-.3-.4l-1.2-.3-1.3.2a4 4 0 00-2.1 1c-1.3 1.3-1.1 3.3-.1 4.7 2 3 5.8 3 9 3h.4c3 0 7.2.4 8.5-3 .5-1.2.4-2.6-.2-3.8-.7-1.4-2.2-2.1-3.7-2.3zm-9.2 4.8l4 .1v1l-.2.9v.4a.4.4 0 00-.2.2l-3.3-.1-.2-.4v-1.3l-.1-.8zm5.1.1h3.4l-.3 1.5c0 .6.4.9.8.9h-.1c-1.3.2-2.6.1-3.9.1v-1.2l.1-1.3zm6.7 0a3 3 0 01-.2.7c-.4 1-1.4 1.5-2.4 1.7.2-.1.3-.2.3-.5l.2-1.9h2zm-15.5-.3h1.5l1.4.2v.9l-.1 1.2a5 5 0 01-2.4-1.6 3.1 3.1 0 01-.4-.7zm13-3a3 3 0 012.2 1.4l.3 1.5-2.2-.1a49.3 49.3 0 000-.4v-.3c0-.6 0-1.4-.2-2zm-4.3.1h.4c1-.2 2-.3 3-.2h.5l-.2 2.1-.1.8h-.2l-3.3-.2v-2.5zm-5.1 0a20.7 20.7 0 004.5 0v.7a60 60 0 01-.2 1.4v.4l-4.1-.2h-.2v-.8l-.2-1.5a.7.7 0 00.2 0zm-.5.1l-.1 2.1H114c-.6 0-1.4-.2-2 0 0-.6.2-1.1.6-1.5.9-.6 1.9-.4 2.8-.6zm3-6.3c-1.3-.8-4.6-1.5-4.8.8-.1 1.1.7 2 1.7 2.5 1 .4 2.5.8 3.3 0 .6-.7-.2-1.9-1-1.3-.5.2-1.3 0-1.8-.1-.5-.2-1.2-.6-1-1.2.2-.6 1-.7 1.5-.7l2.1.2c.1 0 .2-.1 0-.2zm-5.4-3.8c-1.8-.1-3 1.8-2.5 3.5 0 .2.3.5.6.5h.1a.7.7 0 00.1 0c.3-.1.6-.4.5-.7v-.1c0-.8 0-1.7 1-1.9.8-.1 1.2.6 1.2 1.3l.2.2c.6-.4.7-1 .5-1.6-.3-.8-1-1.2-1.7-1.2zm13.4.4c-1.4-.5-2.8.2-3.4 1.4-.2 0-.5.2-.4.5 0 .4 0 .6.4.9.4.4 1.1.2 1.3-.3.2-.8 1-1.2 1.7-1 .8.3.8 1.2 1.4 1.7h.2c.7-.3.6-1.2.3-1.7-.3-.7-.8-1.3-1.5-1.5zm1.7-4c-1-1-3.8-2.1-4.5-.1-.2.3.1.9.5 1l2-.2c.4 0 1 .3 1.4.6 1.2.9 1.4 2.4 2.2 3.5h.1a6 6 0 00-1.7-4.8zm-13.8-1c-.7-.3-1.5-.3-2.2 0a4.3 4.3 0 00-2.5 2l-.3.6c-.6.3-.8 1-.3 1.6.3.3.7.5 1.1.3.8-.2 1-.8 1.2-1.5.2-.5.5-.9.9-1.2a4 4 0 013.5-.5s.2-.1.1-.2l-.6-.7-1-.5z" fill="#2B283A"/><path fill-rule="evenodd" clip-rule="evenodd" d="M106 32c.9 6 7.1 6.8 8.2.7-.2 0-.3-.2-.3-.5 0-1.3-.4-2.7-1.5-3.4a7.3 7.3 0 00-4-.9c-2.8 0-2.7 2.2-2.4 4.1zm9.2-2.6c.8 0 1.9 0 2.6.5.3-.6.8-1.2 1.3-1.5L113 28c.5.3 1 .8 1.2 1.4l1-.1zm3.7 3.3c2.3 8 8.2 4.5 8.8 3.5 1.1-1.7 1.4-6 .4-7-1.5-1-3.5-.8-5.2-.8-3 0-5.3 1-4 4.3zm-15.7-3.8c.7 0 1.4 0 2 .2.1-.8.7-1.4 1.3-1.7.1-.1.1-.2.4-.2 1.6-.4 3.4-.2 5 .3l7.6.7c2.3-1 9.4-1.2 9.8 1.4.6 0 1.5-.5 2 0 3.4-.5 7 .3 10.3.7 1 .1 1.4 1.8.4 1.8-.6-.1 0-1-.8-1.1-3.3-.4-6.5-1-9.8-1 .1.6-2.2.6-2.3.3a9 9 0 01-1 6.6c-1.4 1.8-5 2.3-6.7 1.1-2-1-4.2-6.2-3.6-8a7 7 0 00-3.4 0c.3.7.8 2.6.1 2.7.1 3.7-3.2 6-6.2 4.5-2.7-1.3-3.6-5.2-3.3-7.6-.3.6-3 0-1.8-.7z" fill="#2B283A"/><path fill-rule="evenodd" clip-rule="evenodd" d="M40.2 47.8c1.3-.4 2.8-.4 4.2-.3 1.4.1 2.8.3 4.1.8a5 5 0 012.6 2.3c.5.8.7 1.8.9 2.8l.1 1.2.1.8c0 .3 0 .6.2 1 .1 1 .4 1.8 1 2.5 1.3 1.7 3.4 2.3 5.4 3 1.3.5 2.3 1.4 2.5 2.7A128 128 0 0072.8 78c.8.7.7 2 .8 3a282.8 282.8 0 01.9 9.3 281.9 281.9 0 01.9 24.6v3.5c-.1 1-.4 2-1.4 2.6-.8.5-1.9.5-2.9.5a176.8 176.8 0 01-15.7.3c-8.3 0-16.6-.2-24.9.2-2.1.2-8.9-.6-11-.4-2 .2-.2 1.2-1.5 1.2-4-.3-8-1.2-11.9-2.3-.5-.1-.9-.6-.9-1l.5-17a537.1 537.1 0 011.4-21.6l.1-1 .4-3.5a7 7 0 011.5-3.1c.7-.9 8.6-7.2 10.4-8.5l5.6-3.2c.8-.4 1.5-.2 2.2-.8.3-.3 5.3-2.2 6.7-2.9 1-.5 2-1 2.8-1.9.2-.3.7-2.1.7-2.7 0-1-.1-2.1.2-3.1a3.6 3.6 0 012.5-2.4zm2.2 26.7l-8 15.7h5.2L36 99h8l-3 12.2 17-21h-6.3L58 82h-4.3l4.3-7-15.5-.5z" fill="#fff"/><path fill-rule="evenodd" clip-rule="evenodd" d="M69.5 83.4zm-15.7-4.6c-.7 1-1.5 2.8-2.2 3.7a28.6 28.6 0 00-.3.4c-.2.4.1 1 .6 1 1 0 2 0 2.9-.2-2 2.2-3.6 5-5.4 7.3l-.4.4c-.4.6 0 .9.7.7h.3l2.8-.8 1.5-.3h.6l-.3.4a164.2 164.2 0 01-2.6 4c-2.4 3.4-5 6.7-7.5 10l-2 2.4 1.8-3.5 3.4-6.5.2-.4c.2-.4-.2-1-.7-.8a80 80 0 00-7 1.7l-.4.1-.3.1.1-.2V98c1.3-3.5 3.1-6.8 5.3-9.8h-.3c-2.4 0-4.7.4-7 1l.2-.7.9-1.8 1.8-3.8a143.2 143.2 0 002.6-5.7l.7-1.6 9.9.3H55c.4.1.9.2 1.1-.1h.1l-2.4 3zm-29.2-18h.1l.3.3a28.2 28.2 0 01-.4-.2zm52.3 55a482.7 482.7 0 00-.2-4.3 390 390 0 00-.5-8.3c-.5-5.7-.9-11.3-1.6-17a149.3 149.3 0 00-.9-7c0 .6.9 1 1.3.3a5 5 0 000-.1 17 17 0 001.2-3.8c0-.5-.4-.9-.6-1.3a85.3 85.3 0 00-.6-1 49.3 49.3 0 00-4.5-6 23.3 23.3 0 00-6.3-4.2l-2.3-1s-.1.1 0 .2l.6.4-1.9-.4-3.7-1.3a5.8 5.8 0 01-3.1-2c-.7-.8-1.1-2-1.5-3l-.8-3.5c0-.1-.2-.1-.2 0-.2 1.2-.2 2.6-.1 3.8.1 1.3.5 2.6 1.3 3.7a8 8 0 003.6 2.4c1.2.5 2.3 1 3.5 1.3A12.7 12.7 0 0157 65a32.2 32.2 0 01-11 2.3 35 35 0 01-18.4-4.9 86.4 86.4 0 01-1.2-.6c1 0 1.8-.3 2.7-.5 1.7-.5 3.3-1.2 5-2a8 8 0 003.6-2.6c.4-.7.6-1.6.8-2.4l.5-2.7c0-.3 0-.7-.3-.9a1 1 0 00-.4-.1c-.4 0-.7.2-.8.6l-.5 2.5c-.1.8-.2 1.5-.6 2.2-.7 1.1-2 1.7-3.2 2.3a54.7 54.7 0 01-6.5 2.6l-.1-.5-.6-.5a1 1 0 00-.8-.2h-.4a115.5 115.5 0 00-1.1.5 45.1 45.1 0 00-17 12.7c-.5.7-1.2 1.5-1.3 2.4 0 0 .1.1.1 0a2.6 2.6 0 01.2-.4 2 2 0 000 1.3c.2.5.6.8 1 1l-1 6-.8 8.8a209.1 209.1 0 000 25.1c0 .8 0 1.7.6 2.1v.1c.2.6 1 .5 1 0v-.1c.7-.5.6-1.2.5-2V115a348.8 348.8 0 01-.5-13.1c0-5.9.3-11.7.7-17.5.2-2.4.4-4.8.4-7.3.3-.1.4-.6.3-.9A44.2 44.2 0 0119 87l.4.7-.4 1.7c-.3 1.1-.4 2.3-.5 3.5l-.7 7c-.4 4.8-.7 9.5-.8 14.2v8c0 .5.4 1 1 1a1 1 0 001-.5 188.7 188.7 0 0020.2 0l21.4-.7 6-.1c.9 0 2 .2 2.7-.5l.3-.4c.2 0 .4 0 .6-.2.2-.3.4-.6.4-1l-.2-1.2a188.3 188.3 0 01-1.7-15.6c-.5-6-.6-11.9-.6-17.8v-1.6l.1.1c.3.2.7.3 1 .1.4-.2.6-.6 1-.9a38.8 38.8 0 012.7-2.8l.2-.2v5.7l.4 8.4.8 16.7.3 4.7v2.3l.1 1.3c0 .4 0 1 .2 1.3.3 1 1.8 1.2 2.1 0 .2-.7 0-1.5 0-2.2v-2.1z" fill="#2B283A"/><path fill-rule="evenodd" clip-rule="evenodd" d="M49 10c5.7 0 12.9 6.5 15 9.3 1.7 2.3 1.5 14.4 1.5 21.6 0 1.5-.7 4.3-1 5.7-.8 5.3-4.8 9.7-12.5 9.7a20 20 0 01-16-7.1c-1-1.2-6.2 3-7.3 1.5-2.8 0-5.1-26.2.4-34 5.4-8 14-6.8 19.8-6.8z" fill="#fff"/><path fill-rule="evenodd" clip-rule="evenodd" d="M31.7 11.8c3.3-3 7.7-4.5 12.2-4.4a22.5 22.5 0 0110 2.7l1 .7a7 7 0 012.4 1.6 10 10 0 019 3.7 9 9 0 011.8 6.4v.4c-.2 2-.5 4.6-2.2 6l-.4.1c1 1.9 2 4 2.5 6 2 7.8.4 16-2 23.6-.2.6-1.1 1-1.6.4-.9-1-2.1-1.9-3.5-2-.9-.1-1.7 0-2.6-.4-.3-.1-.6-.4-.8-.7a11 11 0 01-4.3.7c-2.5 0-5-.9-6.7-2.7a1 1 0 01-.3-1 3.6 3.6 0 01.7-.1c2 1.2 4.4 2 6.9 2.1a7 7 0 004-1 5.7 5.7 0 00.7-.7c2.5-1.6 4.2-4.3 5-7.1.8-2.7.7-5.5.4-8.2l-.1-1.5-.5-6.4c.6 0 .6-.8 0-.8h-4c0-.7 0-1.3-.2-1.9-.1-.3-.7-.4-.8 0l-.1 1.7c-2 0-4-.2-6-.1-.4-.4-.5-1.1-.7-1.6a18.4 18.4 0 000-.2 11.5 11.5 0 01-.7 2h-.5c-2.8 0-5.7.1-8.4.7a1 1 0 01-.3-.6c-.2-1.5-.5-3-1-4.4v-.2a4.9 4.9 0 01-.1-.1 11 11 0 01-2.2 2.5l-.9 1v.2a9 9 0 010 2 10 10 0 01-1 3.6v.1c0 .6-.2 1-.5 1.5.4.4.7.9.8 1.4.2.5-.5.9-.8.5a4 4 0 00-1-.8c-1-.5-2.5-.3-3.4.2-1.1.6-1.5 1.8-1.4 3 .1 1.2.6 2.5 1.6 3.1a1.5 1.5 0 001.7 0h.1c.3-.3.6-.5 1-.5.4-.1.8 0 1 .4l.1.8c0 .4-.2.7-.4 1a2 2 0 01-.1 0c4 4.3 4.4 11 2.4 16.4a16.6 16.6 0 01-.3.6c-.3.8-1.6.6-1.8-.2a16.4 16.4 0 00-.2-.7 17.3 17.3 0 00-.3-1.2v-.2l-.4-1a3.3 3.3 0 010-.1l-.3.4-.6 1.4c-.3.6-1.2.3-1.2-.4a9 9 0 000-.3c-.1-.8-.2-1.6-.5-2.4-1.3 1.6-2.7 3-4.7 3.3-.5.1-1-.4-.7-.9l.4-.6a4.4 4.4 0 01-.3-.2c-.7-.4-1.3-1-1.9-1.7a9 9 0 01-1.5-5 17.5 17.5 0 011.4-7.8v-.2a29.5 29.5 0 01-1.8-9.8 28.8 28.8 0 018.9-22.1zm-1.9 34.9c-.3-.5-1 0-.7.4.5.7.7 1.5 1 2.2 0 .5.8.3.7-.2v-.2c-.3-.7-.5-1.5-1-2.2zm2.4-8.3h.2c.6-.4 1-.5 1.7-.3 1 .3 2 1.3 1.3 2.3a1 1 0 01-1 .5c-.7-.2-.9-.8-1.3-1.3v-.1c-.2-.3-.5-.8-.9-.9v-.2zm.5-21c.5-.4-.1-1-.5-.7-1.8 1.6-2.4 4-3.3 6.2-.2.5.5.9.7.4.9-2 1.4-4.4 3.1-6zm21.4-.7c-.4-.2-.8.5-.4.7 1.6.7 2.3 2.3 2.9 3.8.2.5.9 0 .7-.4l-.1-.3c-.7-1.5-1.5-3-3-3.8zm2.5-1c-.5-.2-.7.6-.2.8 1.3.5 2.2 1.5 3 2.6.3.4 1 0 .7-.4-.9-1.3-2-2.4-3.5-3z" fill="#2B283A"/><path fill-rule="evenodd" clip-rule="evenodd" d="M56.5 40c.8.4 2 1.6 1.2 2.8-1 1-2.6-.2-3.3-.7-.7-.5-1.4.7-.8 1.2 5.3 3.9 7.4-3.2 3.3-4-.5 0-.6.5-.4.6zM49 30.4h.4c.6-.2 1.3-.2 1.8.2.2.3.3.8 0 1-.6.5-1.2.3-1.9.4a7.3 7.3 0 00-1.6.2 11 11 0 00-3 1.6c-.2.1-.4 0-.3-.2.6-1 1.7-2 2.8-2.6a7 7 0 011.9-.6zM54.5 46c1.8 0 5.6-.8 7.2.5 6 7.5-17.9 9.4-15.3 1.1 1.7-2.6 5.4-1.6 8-1.6zm-.3 4.5c-.5 0-1 .3-1.1.6-.2.2-.1.8-.1.9h2.3c-.2-.6-.2-1.4-1.1-1.5zm3.5 1.1c-.1-.8-.7-1-1.2-.9-.5.1-.7.7-.7 1.2a13.3 13.3 0 002-.3zm-5.4-1c-.3-.4-1-.6-1.4-.5-.7.1-.8 1-.8 1.2a12.2 12.2 0 002.4.6v-.1c0-.2 0-.8-.2-1.2zm7.8 0c-.7-1.1-2.2-.3-2.1.9a14 14 0 002.1-1zm-5.6-3.8h-2.3v.3c-.1.7-.2 1.4.2 1.7.3.2 1.3.2 2 0 .1 0 .4-1.5.1-2zm1.5 0c-.2.6-.2 1.5 0 1.7.4.3 1.4.3 1.7 0 .3 0 .2-.8.2-1.6l-2-.2zm-4.3 0h-.5L50 47c-1 2 2.4 2.3 1.8 0v-.1zm6.6.1v.1c0 .6 0 1.3.3 1.5.4.3 1.3.2 1.7-1.1-.1-.4-1.7-.5-2-.5zm-8.8-11.7l.5.2.5.5c.2.4.4 1 .4 1.6 0 .6-.2 1.2-.4 1.6l-.5.5a1 1 0 01-.5.2 1 1 0 01-.5-.2c-.2 0-.4-.3-.5-.5-.2-.4-.4-1-.4-1.6 0-.6.2-1.2.4-1.6l.5-.5.5-.2zm12.1 0l.6.2.4.5c.2.4.4 1 .4 1.6 0 .6-.2 1.2-.4 1.6l-.4.5a1 1 0 01-.6.2 1 1 0 01-.5-.2c-.2 0-.3-.3-.5-.5-.2-.4-.3-1-.3-1.6 0-.6.1-1.2.3-1.6l.5-.5.5-.2zM60 30h.2c1.7.4 3.8 1.1 4.6 2.7v.3l-.2.1c-.4 0-.7-.2-1-.3l-.3-.2-1-.5-2.6-.5a1 1 0 01-.5-.2.7.7 0 01-.2-.4v-.6a.8.8 0 01.4-.4h.6z" fill="#2B283A"/></svg>